Coordinates
version=1
nRows=20
nColumns=34
inDegrees=yes

Units are S.I. units (second, meters, Newtons, ...)
If the header above contains a line with 'inDegrees', this indicates whether rotational values are in degrees (yes) or radians (no).

endheader
time	pelvis_tilt	pelvis_list	pelvis_rotation	pelvis_tx	pelvis_ty	pelvis_tz	hip_flexion_r	hip_adduction_r	hip_rotation_r	knee_angle_r	ankle_angle_r	subtalar_angle_r	mtp_angle_r	hip_flexion_l	hip_adduction_l	hip_rotation_l	knee_angle_l	ankle_angle_l	subtalar_angle_l	mtp_angle_l	lumbar_extension	lumbar_bending	lumbar_rotation	arm_flex_r	arm_add_r	arm_rot_r	elbow_flex_r	pro_sup_r	arm_flex_l	arm_add_l	arm_rot_l	elbow_flex_l	pro_sup_l
      1.36666670	     -2.27444496	      1.92514178	     -1.31592604	      1.75509477	      0.87756771	     -0.09239353	     -2.43508957	     -4.78443454	      4.46835625	      0.00000000	      4.02002554	    -20.02464181	      0.00000000	     -2.16528252	     -3.88686139	     -1.17751526	      1.89824916	      4.21730348	     -5.49658885	      0.00000000	     -4.66327798	      0.90032341	     -1.55210685	      8.24721561	     -9.24217749	     38.61890344	     91.51846461	     94.26045167	      5.52270784	     -9.51342257	     32.70707457	     86.87069730	     92.33551872
      1.38333330	     -2.27130065	      1.92549746	     -1.31451966	      1.75523361	      0.87778368	     -0.09237612	     -2.43416098	     -4.78391080	      4.46492096	      0.00000000	      4.02057804	    -20.02662431	      0.00000000	     -2.16315400	     -3.88735880	     -1.17946415	      1.89839612	      4.21551791	     -5.49678793	      0.00000000	     -4.66320461	      0.90005722	     -1.55093841	      8.24686925	     -9.24106295	     38.61961744	     91.51859244	     94.25997625	      5.52245277	     -9.51299213	     32.70819358	     86.87177917	     92.33519778
      1.40000000	     -2.28826086	      1.97704076	     -1.11471529	      1.75551549	      0.87798959	     -0.09216493	     -2.44943495	     -4.81206297	      3.84800786	      0.00000000	      3.76631555	    -20.42269158	      0.00000000	     -2.08776241	     -3.85235181	     -1.28382366	      1.89599797	      3.74095420	     -5.42289075	      0.00000000	     -4.73623659	      0.80881236	     -1.49576564	      8.08363887	     -9.12222704	     38.67942788	     91.63073646	     93.46837197	      5.74554594	     -9.94414641	     33.84590186	     87.63986758	     91.79674135
      1.41666670	     -2.29174255	      1.98630788	     -1.11366749	      1.75570605	      0.87820913	     -0.09178477	     -2.45471868	     -4.79855917	      3.84927429	      0.00000000	      3.76749477	    -20.42316771	      0.00000000	     -2.08816206	     -3.85080223	     -1.28473637	      1.89842953	      3.74030581	     -5.42307819	      0.00000000	     -4.73544506	      0.80758686	     -1.49654377	      8.08215152	     -9.12290808	     38.67967513	     91.63061277	     93.46636644	      5.74718477	     -9.94113955	     33.84625750	     87.63958589	     91.79512278
      1.43333330	     -2.29476573	      1.98749878	     -1.11362375	      1.75565835	      0.87832899	     -0.09175445	     -2.45669359	     -4.79599002	      3.84936541	      0.00000000	      3.76765139	    -20.42326334	      0.00000000	     -2.08917285	     -3.85009826	     -1.28483492	      1.89917350	      3.74013780	     -5.42301021	      0.00000000	     -4.73512424	      0.80725551	     -1.49654483	      8.08188780	     -9.12280852	     38.67977670	     91.63062919	     93.46609500	      5.74728722	     -9.94075608	     33.84635450	     87.63955781	     91.79490542
      1.45000000	     -2.29956037	      1.99342587	     -1.11450121	      1.75552795	      0.87842685	     -0.09188501	     -2.46051325	     -4.78932727	      3.84940744	      0.00000000	      3.76780582	    -20.42337891	      0.00000000	     -2.09064941	     -3.85002449	     -1.28495092	      1.90019100	      3.73978470	     -5.42280023	      0.00000000	     -4.73449821	      0.80657623	     -1.49638415	      8.08142800	     -9.12238893	     38.68002039	     91.63066568	     93.46573654	      5.74724561	     -9.94030472	     33.84654714	     87.63949669	     91.79461978
      1.46666670	     -2.30444748	      1.99793045	     -1.11550640	      1.75531755	      0.87868311	     -0.09204768	     -2.46458385	     -4.78314129	      3.84929662	      0.00000000	      3.76795100	    -20.42357440	      0.00000000	     -2.09183905	     -3.84956070	     -1.28514603	      1.90103447	      3.73936285	     -5.42253931	      0.00000000	     -4.73350351	      0.80567466	     -1.49609907	      8.08077745	     -9.12164927	     38.68042174	     91.63076747	     93.46537705	      5.74704307	     -9.93987551	     33.84681455	     87.63945316	     91.79433349
      1.48333330	     -2.28816492	      1.99298129	     -1.11281248	      1.75480105	      0.87905706	     -0.09211507	     -2.46424026	     -4.76417358	      3.84762523	      0.00000000	      3.76838023	    -20.42498024	      0.00000000	     -2.08861378	     -3.84028264	     -1.28712450	      1.90167141	      3.73569829	     -5.42016153	      0.00000000	     -4.72797236	      0.79949468	     -1.49454918	      8.07507339	     -9.11560955	     38.68397337	     91.63120728	     93.46275823	      5.74598318	     -9.93659495	     33.84888253	     87.63851761	     91.79224478
      1.50000000	     -2.28664804	      1.99229875	     -1.11161692	      1.75468025	      0.87884032	     -0.09212740	     -2.46251994	     -4.76208658	      3.84725575	      0.00000000	      3.76833134	    -20.42515359	      0.00000000	     -2.09075522	     -3.83924429	     -1.28753161	      1.90278896	      3.73523322	     -5.41989500	      0.00000000	     -4.72768572	      0.79878212	     -1.49446746	      8.07425225	     -9.11487121	     38.68445780	     91.63119895	     93.46245896	      5.74600933	     -9.93631353	     33.84904747	     87.63831682	     91.79200064
      1.51666670	     -2.26626676	      1.98282319	     -1.10565556	      1.75463723	      0.87858437	     -0.09242112	     -2.44052431	     -4.74643484	      3.84204370	      0.00000000	      3.76716410	    -20.42774283	      0.00000000	     -2.10022687	     -3.83238949	     -1.29153535	      1.90749621	      3.73228092	     -5.41811689	      0.00000000	     -4.72845106	      0.79129648	     -1.49494438	      8.06682760	     -9.10789457	     38.68881727	     91.63118996	     93.45975673	      5.74924588	     -9.93514191	     33.84901207	     87.63591417	     91.78971620
      1.53333330	     -2.26122218	      1.98451774	     -1.10544531	      1.75479247	      0.87869671	     -0.09262609	     -2.43479567	     -4.74351526	      3.84121796	      0.00000000	      3.76685467	    -20.42814297	      0.00000000	     -2.10121853	     -3.83350786	     -1.29207700	      1.90788809	      3.73202352	     -5.41795505	      0.00000000	     -4.72915858	      0.79007832	     -1.49515238	      8.06579108	     -9.10699617	     38.68935790	     91.63111056	     93.45938622	      5.74985699	     -9.93524182	     33.84884352	     87.63535503	     91.78939449
      1.55000000	     -2.25107328	      1.97077181	     -1.10333752	      1.75462958	      0.87918973	     -0.09272303	     -2.40884518	     -4.73827471	      3.83476209	      0.00000000	      3.76365527	    -20.43052182	      0.00000000	     -2.11565049	     -3.82994214	     -1.29506979	      1.91278837	      3.73112567	     -5.41689389	      0.00000000	     -4.73433884	      0.78429594	     -1.49908006	      8.05827048	     -9.10389324	     38.69204600	     91.62986944	     93.45712975	      5.75315147	     -9.93411101	     33.84840877	     87.63144764	     91.78748820
      1.56666670	     -2.25033122	      1.93707287	     -1.17711307	      1.75428284	      0.87954123	     -0.09238191	     -2.35787906	     -4.69396872	      3.76618462	      0.00000000	      3.70477746	    -20.44464825	      0.00000000	     -2.13405913	     -3.87343847	     -1.31411385	      1.89382949	      3.72511072	     -5.40115105	      0.00000000	     -4.81217765	      0.74756390	     -1.55253226	      8.00247831	     -9.09168212	     38.70410302	     91.61052485	     93.43239219	      5.79143108	     -9.90185470	     33.85048347	     87.58813922	     91.76769274
      1.58333330	     -2.23778281	      1.93896618	     -1.16441835	      1.75401289	      0.87933381	     -0.09238307	     -2.34505330	     -4.69265230	      3.76489986	      0.00000000	      3.69772305	    -20.44326651	      0.00000000	     -2.13984126	     -3.87627775	     -1.31722659	      1.89292467	      3.72522840	     -5.40044396	      0.00000000	     -4.81426009	      0.74925284	     -1.55188849	      8.00296031	     -9.09111078	     38.70341618	     91.60945560	     93.43015754	      5.79154849	     -9.89890619	     33.85141060	     87.58498065	     91.76603209
      1.60000000	     -2.23221360	      1.94042071	     -1.16239080	      1.75397595	      0.87868238	     -0.09250349	     -2.34205750	     -4.69161465	      3.76471526	      0.00000000	      3.69589305	    -20.44274392	      0.00000000	     -2.14058846	     -3.87738650	     -1.31783848	      1.89247062	      3.72525257	     -5.40023798	      0.00000000	     -4.81515308	      0.74952986	     -1.55190217	      8.00345592	     -9.09133351	     38.70299235	     91.60909981	     93.42969591	      5.79148777	     -9.89823265	     33.85172905	     87.58425482	     91.76570695
      1.61666670	     -2.22568352	      1.93849231	     -1.15866290	      1.75396692	      0.87810223	     -0.09248842	     -2.33774328	     -4.69406601	      3.76465943	      0.00000000	      3.69372091	    -20.44208552	      0.00000000	     -2.14165265	     -3.87894144	     -1.31875495	      1.89205300	      3.72551159	     -5.40028488	      0.00000000	     -4.81602978	      0.75003519	     -1.55197277	      8.00457354	     -9.09199372	     38.70217559	     91.60878260	     93.42918691	      5.79127281	     -9.89733308	     33.85222991	     87.58356203	     91.76536985
      1.63333330	     -2.20767525	      1.91884060	     -1.03962737	      1.75402101	      0.87807438	     -0.09232709	     -2.37141117	     -4.68413825	      3.75330001	      0.00000000	      3.55457593	    -20.40854935	      0.00000000	     -2.13735605	     -3.90945182	     -1.38572680	      1.85229102	      3.75323971	     -5.41813542	      0.00000000	     -4.85261177	      0.77423958	     -1.56057351	      8.10365313	     -9.13936630	     38.63518789	     91.60259884	     93.39603844	      5.78193330	     -9.84103228	     33.88679102	     87.55198645	     91.74401973
      1.65000000	     -2.18577884	      1.90843748	     -1.11062670	      1.75406482	      0.87836089	     -0.09166123	     -2.38009389	     -4.66650340	      3.71813846	      0.00000000	      3.49452074	    -20.41166465	      0.00000000	     -2.17250160	     -3.93636839	     -1.39753452	      1.88950506	      3.75446598	     -5.41383033	      0.00000000	     -4.85683761	      0.77825425	     -1.59387618	      8.12250249	     -9.15803164	     38.60545552	     91.60194678	     93.37410788	      5.78956148	     -9.82112700	     33.90457279	     87.53573184	     91.72916567
      1.66666670	     -2.18615358	      1.90897516	     -1.10912529	      1.75405469	      0.87814476	     -0.09163873	     -2.38196825	     -4.66518950	      3.71819357	      0.00000000	      3.49372017	    -20.41148602	      0.00000000	     -2.17268146	     -3.93619509	     -1.39855533	      1.88965521	      3.75459975	     -5.41417526	      0.00000000	     -4.85706552	      0.77824800	     -1.59366062	      8.12279596	     -9.15805942	     38.60509355	     91.60192152	     93.37376277	      5.78933955	     -9.82127817	     33.90474454	     87.53541291	     91.72892294
      1.68333330	     -2.18925296	      1.91362499	     -1.10729429	      1.75396415	      0.87756276	     -0.09171127	     -2.38886541	     -4.66100987	      3.71845095	      0.00000000	      3.49276880	    -20.41116801	      0.00000000	     -2.17245130	     -3.93757288	     -1.40088184	      1.88953369	      3.75483212	     -5.41509477	      0.00000000	     -4.85719759	      0.77782324	     -1.59331156	      8.12285321	     -9.15805973	     38.60458050	     91.60187580	     93.37324476	      5.78885860	     -9.82198109	     33.90487827	     87.53487395	     91.72855127
